<?xml version="1.0" ?><svg id="Layer_1" style="enable-background:new 0 0 50 50;" version="1.1" viewBox="0 0 50 50" xml:space="preserve" xmlns="http://www.w3.org/2000/svg" xmlns:xlink="http://www.w3.org/1999/xlink"><style type="text/css">
	.st0{fill:#F0C4DB;}
	.st1{fill:#FF9D9C;}
	.st2{fill:#9BEAF9;}
	.st3{fill:#E9F4BC;}
	.st4{fill:#505050;}
	.st5{fill:#FEBECC;}
	.st6{fill:#FFFFFF;}
	.st7{fill:#FDE4A1;}
	.st8{fill:#FEE7B5;}
	.st9{fill:#CDF6FC;}
	.st10{fill:#F2C6DD;}
	.st11{opacity:0.1;}
</style><g><path class="st10" d="M9.8,6.27c0,9.61,7.64,17.65,17.25,17.75c0.07,0,0.15,0,0.22,0c11.6,0,21-9.4,21-21   c0-0.59-0.04-1.17-0.09-1.75H9.8V6.27z"/><g><path class="st2" d="M6.05,32.41C3.6,30.6,2,27.69,2,24.41c0-5.49,4.46-9.95,9.95-9.95c0.46,0,0.92,0.04,1.37,0.1    C13.54,7.59,19.27,2,26.3,2c7.17,0,12.98,5.82,12.98,12.98c0,1.94-0.42,3.76-1.17,5.41c0.82-0.33,1.72-0.51,2.66-0.51    c4,0,7.23,3.24,7.23,7.23c0,2.86-1.65,5.32-4.05,6.5"/><path class="st3" d="M43.95,29.12v16.94c0,1.07-0.87,1.94-1.94,1.94H7.99c-1.07,0-1.94-0.87-1.94-1.94V29.12    c0-1.07,0.87-1.94,1.94-1.94h34.01C43.08,27.17,43.95,28.05,43.95,29.12z"/><path class="st1" d="M9.06,42v-8.83c1.66,0,3-1.34,3-3h25.9c0,1.66,1.34,3,3,3V42c-1.66,0-3,1.34-3,3h-25.9    C12.06,43.34,10.71,42,9.06,42z"/><g><path class="st4" d="M40.95,32.42c-1.24,0-2.25-1.01-2.25-2.25c0-0.41-0.34-0.75-0.75-0.75h-25.9c-0.41,0-0.75,0.34-0.75,0.75     c0,1.24-1.01,2.25-2.25,2.25c-0.41,0-0.75,0.34-0.75,0.75V42c0,0.41,0.34,0.75,0.75,0.75c1.24,0,2.25,1.01,2.25,2.25     c0,0.41,0.34,0.75,0.75,0.75h25.9c0.41,0,0.75-0.34,0.75-0.75c0-1.24,1.01-2.25,2.25-2.25c0.41,0,0.75-0.34,0.75-0.75v-8.83     C41.7,32.76,41.36,32.42,40.95,32.42z M40.2,41.32c-1.47,0.3-2.63,1.46-2.92,2.92H12.73c-0.3-1.47-1.46-2.63-2.92-2.92v-7.48     c1.47-0.3,2.63-1.46,2.92-2.92h24.55c0.3,1.47,1.46,2.63,2.92,2.92V41.32z"/><path class="st4" d="M23.03,3.17c0.07,0,0.13-0.01,0.19-0.03h0.01c0.19-0.05,0.35-0.17,0.45-0.34c0.1-0.18,0.13-0.38,0.08-0.57     c-0.09-0.33-0.39-0.56-0.73-0.56c-0.06,0-0.12,0-0.17,0.02c-0.01,0-0.01,0-0.02,0c-0.19,0.05-0.35,0.17-0.45,0.34     c-0.11,0.18-0.13,0.38-0.08,0.57C22.39,2.94,22.69,3.17,23.03,3.17z"/><path class="st4" d="M48.75,27.12c0-4.4-3.58-7.99-7.98-7.99c-0.48,0-0.95,0.04-1.41,0.13c0.45-1.37,0.67-2.81,0.67-4.27     c0-7.58-6.16-13.74-13.73-13.74c-0.45,0-0.91,0.03-1.38,0.07c-0.19,0.02-0.37,0.12-0.5,0.27c-0.13,0.16-0.19,0.35-0.17,0.55     c0.04,0.4,0.39,0.71,0.81,0.67h0.01c0.4-0.04,0.81-0.06,1.23-0.06c6.73,0.01,12.22,5.5,12.23,12.24c0,1.78-0.37,3.5-1.1,5.09     c-0.13,0.28-0.08,0.61,0.14,0.83c0.21,0.22,0.54,0.29,0.82,0.18c0.75-0.3,1.55-0.46,2.38-0.46c3.57,0.01,6.47,2.92,6.48,6.49     c0,2.06-0.96,3.92-2.55,5.14v-3.14c0-1.49-1.21-2.69-2.69-2.69H7.99c-1.48,0-2.69,1.21-2.69,2.69v1.62     c-1.61-1.7-2.55-3.96-2.55-6.33c0.01-5.06,4.14-9.19,9.2-9.2c0.41,0,0.83,0.03,1.26,0.09c0.21,0.04,0.43-0.02,0.59-0.16     c0.17-0.14,0.27-0.34,0.27-0.55c0.15-4.71,3.04-8.96,7.37-10.84c0.18-0.08,0.33-0.22,0.4-0.41c0.07-0.19,0.07-0.39-0.01-0.57     c-0.16-0.37-0.61-0.55-0.99-0.39c-4.62,2-7.77,6.35-8.22,11.35c-0.22-0.01-0.45-0.02-0.67-0.02c-5.9,0-10.7,4.8-10.7,10.7     c0,3.25,1.52,6.34,4.05,8.36v13.29c0,1.49,1.21,2.69,2.69,2.69h34.01c1.49,0,2.69-1.21,2.69-2.69V34.05     C47.21,32.63,48.75,30.03,48.75,27.12z M43.2,46.06c0,0.66-0.54,1.19-1.19,1.19H7.99c-0.66,0-1.19-0.54-1.19-1.19V29.12     c0-0.66,0.53-1.19,1.19-1.19h34.01c0.66,0,1.19,0.54,1.19,1.19V46.06z"/><path class="st4" d="M17.06,9.43c-0.21,0.35-0.1,0.82,0.26,1.03c0.12,0.07,0.25,0.11,0.38,0.11c0.25,0,0.5-0.13,0.64-0.36     c1.68-2.8,4.65-4.48,7.96-4.48c0.41,0,0.75-0.34,0.75-0.75s-0.34-0.75-0.75-0.75C22.46,4.22,19.01,6.17,17.06,9.43z"/><path class="st4" d="M25,34.11c0.75,0,1.36,0.61,1.36,1.36c0,0.41,0.34,0.75,0.75,0.75s0.75-0.34,0.75-0.75     c0-1.32-0.9-2.42-2.11-2.75v-0.45c0-0.41-0.34-0.75-0.75-0.75s-0.75,0.34-0.75,0.75v0.45c-1.21,0.33-2.11,1.43-2.11,2.75     c0,1.58,1.28,2.86,2.86,2.86c0.75,0,1.36,0.61,1.36,1.36c0,0.75-0.61,1.36-1.36,1.36s-1.36-0.61-1.36-1.36     c0-0.41-0.34-0.75-0.75-0.75s-0.75,0.34-0.75,0.75c0,1.32,0.9,2.42,2.11,2.75v0.45c0,0.41,0.34,0.75,0.75,0.75     s0.75-0.34,0.75-0.75v-0.45c1.21-0.33,2.11-1.43,2.11-2.75c0-1.58-1.28-2.86-2.86-2.86c-0.75,0-1.36-0.61-1.36-1.36     S24.25,34.11,25,34.11z"/></g></g></g></svg>